<?xml version="1.0" encoding="utf-8"?>
<!-- Generator: Adobe Illustrator 22.0.0, SVG Export Plug-In . SVG Version: 6.00 Build 0)  -->
<svg version="1.1" id="Layer_1" xmlns="http://www.w3.org/2000/svg" xmlns:xlink="http://www.w3.org/1999/xlink" x="0px" y="0px"
	 viewBox="0 0 1000 1000" style="enable-background:new 0 0 1000 1000;" xml:space="preserve">
<style type="text/css">
	.st0{fill:#101426;}
	.st1{fill:url(#SVGID_1_);}
</style>
<g>
	<path class="st0" d="M-1956.1,607.7h-40.6l80.5-245h40.6l78.2,245h-37.6l-21.6-64.4l-10.8-40.6l-2.6-5.6v-2.6l-19-56.3
		c-1.3-5.4-2.6-10.4-3.9-14.9c-1.3-4.5-2.6-9.4-3.9-14.9c-1.5,5.5-2.9,10.7-4.3,15.9c-1.3,5.1-2.6,9.8-3.9,13.9l-19,64.4h45.8
		l8.2,29.8h-64.4L-1956.1,607.7z"/>
	<linearGradient id="SVGID_1_" gradientUnits="userSpaceOnUse" x1="-1778.4724" y1="485.0735" x2="-1605.09" y2="485.0735">
		<stop  offset="0.1346" style="stop-color:#62C6BF"/>
		<stop  offset="1" style="stop-color:#19B0BF"/>
	</linearGradient>
	<path class="st1" d="M-1712.1,485.1c-6.5-12.2-12.9-23.6-19.1-34c-6.2-10.5-11.3-20.5-15.2-30.1c1.3,12.2,2.1,24.6,2.3,37.1
		c0.2,12.5,0.3,26.8,0.3,42.7v107h-34.7V362.4h37.3l72,122.7c6.8,9.6,12.4,19.4,17,29.4c4.6,10,9.6,19.7,15,29.1l32.1,64.1h-34.7
		L-1712.1,485.1z M-1639.8,516.8v-50.4v-104h34.7v224.1L-1639.8,516.8z"/>
	<path class="st0" d="M-1536.1,607.7h-40.6l80.5-245h40.6l78.2,245h-37.6l-21.6-64.4l-10.8-40.6l-2.6-5.6v-2.6l-19-56.3
		c-1.3-5.4-2.6-10.4-3.9-14.9c-1.3-4.5-2.6-9.4-3.9-14.9c-1.5,5.5-2.9,10.7-4.3,15.9c-1.3,5.1-2.6,9.8-3.9,13.9l-19,64.4h45.8
		l8.2,29.8h-64.4L-1536.1,607.7z"/>
	<path class="st0" d="M-1989,433.4c0-20.4-16.5-36.9-36.9-36.9c-11.4,0-21.6,5.2-28.4,13.3l-37.2-21.5c2.4-3.8,3.8-8.3,3.8-13.2
		c0-13.8-11.2-25-25-25c-13.8,0-25,11.2-25,25c0,4.8,1.4,9.3,3.8,13.2l-38.1,22c-1.5-2.5-3.3-5-5.5-7.1c-14.4-14.4-37.8-14.4-52.2,0
		c-14.4,14.4-14.4,37.8,0,52.2c6.8,6.8,15.7,10.4,24.7,10.7V515c-4.4,1-8.7,3.2-12.1,6.7c-9.8,9.8-9.8,25.6,0,35.4
		c9.8,9.8,25.6,9.8,35.4,0c1.6-1.6,2.9-3.3,4-5.2l30.8,17.8c-5.2,13.2-2.4,28.8,8.3,39.5c14.4,14.4,37.8,14.4,52.2,0
		c10.7-10.7,13.4-26.3,8.3-39.5l34.5-19.9c4.5,4.7,10.9,7.6,17.9,7.6c13.8,0,25-11.2,25-25c0-11.9-8.3-21.8-19.4-24.4v-38
		C-2002.6,467.2-1989,451.9-1989,433.4z M-2125.8,396.5c3.8,2.3,8.3,3.7,13,3.7c4.8,0,9.2-1.4,13-3.7l39.6,22.9
		c-1.8,4.3-2.8,9.1-2.8,14c0,4.7,0.9,9.1,2.5,13.2l-52.3,29.8l-56.7-33.3c2.8-7.1,3.3-14.9,1.6-22.2L-2125.8,396.5z M-2174.6,540.9
		c0.4-6.9-2-13.9-7.3-19.2c-3.5-3.5-7.7-5.7-12.1-6.7v-50c6-1.6,11.7-4.8,16.4-9.5c0.9-0.9,1.8-1.8,2.5-2.8l56.7,33.3v60.6
		c-7.5,1.1-14.7,4.6-20.5,10.3c-1,1-1.9,2-2.7,3L-2174.6,540.9z M-2083.9,559.9c-0.8-1-1.7-2.1-2.7-3c-5.8-5.8-13-9.2-20.5-10.3V486
		l52.3-29.7c5.7,7.2,13.9,12.2,23.4,13.6v38c-11.1,2.5-19.4,12.5-19.4,24.4c0,2.8,0.5,5.4,1.3,7.9L-2083.9,559.9z"/>
</g>
<path class="st0" d="M790.3,412.4c0-47-38.1-85.2-85.2-85.2c-26.4,0-49.9,12-65.5,30.8l-85.8-49.5c5.5-8.8,8.7-19.2,8.7-30.4
	c0-31.9-25.8-57.7-57.7-57.7c-31.9,0-57.7,25.8-57.7,57.7c0,11.2,3.2,21.6,8.7,30.4l-87.9,50.7c-3.5-5.9-7.7-11.4-12.8-16.5
	c-33.3-33.3-87.2-33.3-120.5,0c-33.3,33.3-33.3,87.2,0,120.5c15.8,15.8,36.3,24,57,24.8v112.6c-10.2,2.3-20,7.4-28,15.4
	c-22.5,22.5-22.5,59.1,0,81.6c22.5,22.5,59.1,22.5,81.6,0c3.7-3.7,6.7-7.7,9.1-12l71.1,41c-11.9,30.5-5.6,66.6,19.1,91.2
	c33.3,33.3,87.2,33.3,120.5,0c24.7-24.7,31-60.7,19.1-91.2l79.7-46c10.5,10.7,25.1,17.4,41.3,17.4c31.9,0,57.7-25.8,57.7-57.7
	c0-27.5-19.2-50.4-44.9-56.2v-87.7C758.9,490.3,790.3,455.1,790.3,412.4z M474.7,327.2c8.8,5.4,19.1,8.5,30.1,8.5
	c11,0,21.3-3.2,30.1-8.5l91.4,52.8c-4.1,10-6.4,20.9-6.4,32.4c0,10.7,2.1,21,5.7,30.4l-120.7,68.7L374,434.6
	c6.5-16.4,7.7-34.3,3.7-51.3L474.7,327.2z M362,660.3c1-15.9-4.6-32.2-16.7-44.4c-8-8-17.7-13.1-28-15.4V485.1
	c13.8-3.8,26.9-11,37.8-21.9c2.1-2.1,4-4.3,5.9-6.5L492,533.7v139.8c-17.3,2.6-34,10.5-47.4,23.9c-2.2,2.2-4.3,4.6-6.2,7L362,660.3z
	 M571.3,704.4c-1.9-2.4-4-4.8-6.2-7c-13.4-13.4-30-21.3-47.4-23.9V533.8l120.7-68.6c13.1,16.5,32.2,28,53.9,31.3v87.7
	c-25.7,5.8-44.9,28.8-44.9,56.2c0,6.4,1.1,12.6,3,18.3L571.3,704.4z"/>
<text transform="matrix(1 0 0 1 -1045.9813 536.7952)" class="st0" style="font-family:'Roboto-Condensed'; font-size:146.4107px;">anadynamics</text>
</svg>
